<?xml version="1.0" standalone="no"?>
<!DOCTYPE svg PUBLIC "-//W3C//DTD SVG 20010904//EN"
 "http://www.w3.org/TR/2001/REC-SVG-20010904/DTD/svg10.dtd">
<svg version="1.0" xmlns="http://www.w3.org/2000/svg"
 width="127.000000pt" height="127.000000pt" viewBox="0 0 127.000000 127.000000"
 preserveAspectRatio="xMidYMid meet">
<metadata>
Created by potrace 1.14, written by Peter Selinger 2001-2017
</metadata>
<g transform="translate(0.000000,127.000000) scale(0.100000,-0.100000)"
fill="#000000" stroke="none">
<path d="M670 1239 c-14 -20 -38 -50 -60 -76 -5 -7 -10 -15 -10 -19 0 -4 -6
-12 -13 -18 -8 -6 -48 -59 -91 -118 -81 -114 -87 -120 -120 -123 -41 -5 -101
-16 -119 -21 -16 -5 -17 -13 -12 -57 3 -29 13 -79 20 -112 16 -67 21 -93 30
-180 7 -58 14 -73 95 -209 14 -23 51 -88 83 -144 53 -92 60 -100 80 -93 207
81 261 101 272 101 8 0 27 -11 43 -25 17 -14 36 -23 44 -19 14 6 99 118 110
146 5 12 0 23 -18 37 -24 19 -25 24 -19 75 4 31 6 57 5 58 -1 2 4 16 10 32 16
43 15 161 -2 185 -8 12 -53 49 -99 83 -132 98 -127 91 -97 130 48 64 53 43
-72 301 -23 48 -43 87 -44 87 -1 0 -8 -9 -16 -21z"/>
</g>
</svg>
